<svg xmlns="http://www.w3.org/2000/svg" version="1.1" width="549.28546" height="564.47583" viewBox="0 0 549.28546 564.47583" id="svg1" inkscape:export-filename="leonschreiberde.svg" inkscape:export-xdpi="96" inkscape:export-ydpi="96" inkscape:version="1.4 (e7c3feb1, 2024-10-09)" sodipodi:docname="leonschreiberde.svg" xmlns:inkscape="http://www.inkscape.org/namespaces/inkscape" xmlns:sodipodi="http://sodipodi.sourceforge.net/DTD/sodipodi-0.dtd" xmlns:svg="http://www.w3.org/2000/svg"><sodipodi:namedview id="namedview1" pagecolor="#ffffff" bordercolor="#000000" borderopacity="0.25" inkscape:showpageshadow="2" inkscape:pageopacity="0.0" inkscape:pagecheckerboard="0" inkscape:deskcolor="#d1d1d1" inkscape:document-units="px" inkscape:zoom="0.72414266" inkscape:cx="171.92745" inkscape:cy="306.56943" inkscape:window-width="1512" inkscape:window-height="921" inkscape:window-x="0" inkscape:window-y="33" inkscape:window-maximized="1" inkscape:current-layer="layer1">
    <inkscape:page x="0" y="0" width="549.28546" height="564.47583" id="page17" margin="0" bleed="0"></inkscape:page>
  </sodipodi:namedview><defs id="defs1">
    <inkscape:path-effect effect="offset" id="path-effect16" is_visible="true" lpeversion="1.3" linejoin_type="miter" unit="mm" offset="1.3109914" miter_limit="4" attempt_force_join="false" update_on_knot_move="true"></inkscape:path-effect>
    <inkscape:path-effect effect="perspective-envelope" up_left_point="297.32989,93.022037" up_right_point="455.50345,106.56192" down_left_point="298.71083,397.86773" down_right_point="457.7601,360.13345" id="path-effect15" is_visible="true" lpeversion="1" deform_type="perspective" horizontal_mirror="false" vertical_mirror="false" overflow_perspective="false"></inkscape:path-effect>
    <inkscape:path-effect effect="perspective-envelope" up_left_point="40.966267,83.427649" up_right_point="230.53841,74.243711" down_left_point="38.70962,367.57266" down_right_point="238.57709,410.84199" id="path-effect14" is_visible="true" lpeversion="1" deform_type="perspective" horizontal_mirror="false" vertical_mirror="false" overflow_perspective="false"></inkscape:path-effect>
    <inkscape:path-effect effect="perspective-envelope" up_left_point="28.49243,123.35156" up_right_point="202.49719,123.35156" down_left_point="28.49243,356.107" down_right_point="193.36811,377.67634" id="path-effect13" is_visible="true" lpeversion="1" deform_type="perspective" horizontal_mirror="false" vertical_mirror="false" overflow_perspective="false"></inkscape:path-effect>
    <inkscape:perspective sodipodi:type="inkscape:persp3d" inkscape:vp_x="-1527.0668 : 433.28389 : 1" inkscape:vp_y="0 : 9226.0183 : 0" inkscape:vp_z="1478.1032 : 433.28389 : 1" inkscape:persp3d-origin="-24.481842 : -354.00299 : 1" id="perspective12"></inkscape:perspective>
    <inkscape:perspective sodipodi:type="inkscape:persp3d" inkscape:vp_x="0 : 286.38074 : 1" inkscape:vp_y="0 : 1000 : 0" inkscape:vp_z="512 : 286.38074 : 1" inkscape:persp3d-origin="256 : 201.04741 : 1" id="perspective1"></inkscape:perspective>
  </defs><g inkscape:label="Layer 1" inkscape:groupmode="layer" id="layer1" transform="translate(17.952263,19.333208)">
    <g sodipodi:type="inkscape:box3d" id="g1" style="opacity:0.9975;fill:#215a2f;stroke:#215a2f;stroke-width:5.66929;stroke-miterlimit:0" inkscape:perspectiveid="#perspective1" inkscape:corner0="1.1138379 : 0.25281125 : 0 : 1" inkscape:corner7="0.0039171287 : 0.036495407 : 0.25 : 1">
      <path sodipodi:type="inkscape:box3dside" id="path6" style="fill:#e9e9ff;fill-rule:evenodd;stroke:none;stroke-linejoin:round" inkscape:box3dsidetype="11" d="M 144.49542,187.91188 288.28807,125.19809 V 297.71017 L 144.49542,279.42232 Z" points="288.28807,125.19809 288.28807,297.71017 144.49542,279.42232 144.49542,187.91188 "></path>
      <path sodipodi:type="inkscape:box3dside" id="path1" style="fill:#353564;fill-rule:evenodd;stroke:none;stroke-linejoin:round" inkscape:box3dsidetype="6" d="m 103.15447,179.53257 v 102.33322 l 41.34095,-2.44347 v -91.51044 z" points="103.15447,281.86579 144.49542,279.42232 144.49542,187.91188 103.15447,179.53257 "></path>
      <path sodipodi:type="inkscape:box3dside" id="path5" style="fill:#afafde;fill-rule:evenodd;stroke:none;stroke-linejoin:round" inkscape:box3dsidetype="13" d="m 103.15447,281.86579 133.8944,25.54346 51.2392,-9.69908 -143.79265,-18.28785 z" points="237.04887,307.40925 288.28807,297.71017 144.49542,279.42232 103.15447,281.86579 "></path>
      <path sodipodi:type="inkscape:box3dside" id="path2" style="fill:#4d4d9f;fill-rule:evenodd;stroke:none;stroke-linejoin:round" inkscape:box3dsidetype="5" d="m 103.15447,179.53257 133.8944,-87.595136 51.2392,33.260656 -143.79265,62.71379 z" points="237.04887,91.937434 288.28807,125.19809 144.49542,187.91188 103.15447,179.53257 "></path>
      <path sodipodi:type="inkscape:box3dside" id="path4" style="fill:#d7d7ff;fill-rule:evenodd;stroke:none;stroke-linejoin:round" inkscape:box3dsidetype="14" d="M 237.04887,91.937434 V 307.40925 l 51.2392,-9.69908 V 125.19809 Z" points="237.04887,307.40925 288.28807,297.71017 288.28807,125.19809 237.04887,91.937434 "></path>
      <path sodipodi:type="inkscape:box3dside" id="path3" style="fill:#8686bf;fill-rule:evenodd;stroke:none;stroke-linejoin:round" inkscape:box3dsidetype="3" d="M 103.15447,179.53257 237.04887,91.937434 V 307.40925 l -133.8944,-25.54346 z" points="237.04887,91.937434 237.04887,307.40925 103.15447,281.86579 103.15447,179.53257 "></path>
    </g>
    <g sodipodi:type="inkscape:box3d" id="g6" style="opacity:0.9975;fill:#215a2f;stroke:#215a2f;stroke-width:5.66929;stroke-miterlimit:0" inkscape:perspectiveid="#perspective12" inkscape:corner0="-0.028333577 : 0.093971692 : 0 : 1" inkscape:corner7="-0.16522672 : 0.047758294 : 0.22766823 : 1">
      <path sodipodi:type="inkscape:box3dside" id="path12" style="fill:#e9e9ff;fill-rule:evenodd;stroke:none;stroke-width:11.1603;stroke-linejoin:round" inkscape:box3dsidetype="11" d="M 278.29746,45.407163 513.2276,36.845031 V 438.15245 L 278.29746,400.90899 Z" points="513.2276,36.845031 513.2276,438.15245 278.29746,400.90899 278.29746,45.407163 "></path>
      <path sodipodi:type="inkscape:box3dside" id="path7" style="fill:#353564;fill-rule:evenodd;stroke:none;stroke-linejoin:round" inkscape:box3dsidetype="6" d="M 1.3809386,29.837096 V 468.63548 L 278.29746,400.90899 V 45.407163 Z" points="1.3809386,468.63548 278.29746,400.90899 278.29746,45.407163 1.3809386,29.837096 "></path>
      <path sodipodi:type="inkscape:box3dside" id="path11" style="fill:#afafde;fill-rule:evenodd;stroke:none;stroke-linejoin:round" inkscape:box3dsidetype="13" d="M 1.3809386,468.63548 254.97262,527.14273 513.2276,438.15245 278.29746,400.90899 Z" points="254.97262,527.14273 513.2276,438.15245 278.29746,400.90899 1.3809386,468.63548 "></path>
      <path sodipodi:type="inkscape:box3dside" id="path8" style="fill:#4d4d9f;fill-rule:evenodd;stroke:none;stroke-linejoin:round" inkscape:box3dsidetype="5" d="M 1.3809386,29.837096 254.97262,16.386498 513.2276,36.845031 278.29746,45.407163 Z" points="254.97262,16.386498 513.2276,36.845031 278.29746,45.407163 1.3809386,29.837096 "></path>
      <path sodipodi:type="inkscape:box3dside" id="path10" style="fill:#ededed;fill-opacity:1;fill-rule:evenodd;stroke:none;stroke-width:16.6923;stroke-linejoin:round" inkscape:box3dsidetype="14" d="M 254.97262,16.386498 V 527.14273 L 513.2276,438.15245 V 36.845031 Z" points="254.97262,527.14273 513.2276,438.15245 513.2276,36.845031 254.97262,16.386498 "></path>
      <path sodipodi:type="inkscape:box3dside" id="path9" style="fill:#242423;fill-opacity:1;fill-rule:evenodd;stroke:none;stroke-linejoin:round" inkscape:box3dsidetype="3" d="M 1.3809386,29.837096 254.97262,16.386498 V 527.14273 L 1.3809386,468.63548 Z" points="254.97262,16.386498 254.97262,527.14273 1.3809386,468.63548 1.3809386,29.837096 "></path>
    </g>
    <path d="m 449.64062,100.06055 -5.375,1.67578 c -2.13534,0.66558 -3.92117,1.99576 -5.32617,3.42578 -2.67618,2.72385 -4.88191,6.80106 -6.49609,10 -1.7218,3.4122 -3.28875,6.6452 -4.25781,7.95898 -0.0285,0.0386 -0.0533,0.0686 -0.0801,0.10352 -2.47843,-0.24493 -5.6941,-0.925 -9.93164,-2.04883 -0.009,-0.002 -0.0146,-0.004 -0.0234,-0.006 -21.00564,-6.39339 -26.9861,-7.48465 -40.47266,-8.37304 -22.51569,-1.48318 -40.44523,3.0266 -56.15234,15.01757 l -0.008,0.008 -0.01,0.006 C 303.96028,141.38237 294.32202,161.35427 294.42969,185 c 0.0882,19.36423 6.84853,35.02439 19.68164,46.88477 11.84203,10.97113 24.37168,17.19576 56.36328,29.27343 25.09467,9.49522 40.27126,16.99449 48.73828,24.65235 4.23351,3.82893 6.84091,7.62103 8.51953,11.97851 1.67863,4.35748 2.41188,9.37492 2.46289,15.54492 0.10412,12.59301 -3.7198,23.11939 -11.05469,31.47852 -7.33488,8.35913 -18.32776,14.6013 -32.89453,17.88477 -22.72398,5.12216 -40.71096,2.1394 -51.875,-7.68946 -5.0042,-4.55483 -8.2412,-9.14365 -10.61914,-15.49609 -2.38063,-6.35965 -3.82035,-14.57553 -4.67773,-25.92188 l -0.33789,-4.46679 -23.0918,3.48242 -1.21289,84.76172 5.83398,-2.40625 c 14.09567,-5.815 20.53875,-5.59859 27.63672,-7.22461 3.71352,-0.8507 7.81635,-1.44212 12.29297,-1.76367 26.49424,-1.05894 35.73689,-2.15316 49.72852,-5.47266 23.00259,-5.45734 41.36429,-15.99065 54.91797,-31.82031 12.11374,-13.66371 16.70778,-29.9633 16.5332,-49.58008 -0.14238,-15.9985 -8.64891,-29.84441 -14.75781,-39.18164 -9.66252,-14.95569 -31.71661,-20.1149 -72.78907,-36.61133 -22.07367,-8.83526 -31.92528,-16.35205 -36.38867,-23.79492 -4.46338,-7.44287 -4.21129,-15.90735 -4.27734,-28.15235 -0.0599,-11.10595 3.84178,-21.40709 10.02734,-28.74218 4.06728,-4.3425 8.80192,-7.41992 14.57813,-9.38086 5.80393,-1.97036 12.69375,-2.79111 20.88086,-2.34375 21.18759,1.15772 36.32499,9.65372 44.55078,23.80078 4.72154,8.35165 7.09465,16.99776 8.42969,32.61133 l 0.33007,3.86523 17.98633,-0.28711 z" id="text13" style="font-size:366.667px;font-family:'Hiragino Mincho ProN';-inkscape-font-specification:'Hiragino Mincho ProN, Normal';opacity:0.9975;fill:#242424;fill-opacity:1;stroke:#242424;stroke-width:5.66929;stroke-miterlimit:0;stroke-opacity:1" aria-label="S" inkscape:path-effect="#path-effect15;#path-effect16" inkscape:original-d="m 297.32989,361.22705 c 12.83334,-2.56666 19.43335,-0.90478 25.30002,-0.90478 3.66667,0 7.70001,0.36667 12.10001,1.10001 25.66669,5.13333 34.83336,6.23333 49.13338,6.23333 24.20002,0 44.3667,-6.6 59.76672,-20.16668 13.93334,-11.73334 19.56167,-28.23336 19.56167,-49.86671 0,-16.86668 -9.62511,-32.91056 -16.95845,-44.27724 -10.26668,-16.13335 -32.85343,-22.97487 -78.68681,-44.60822 -43.63337,-20.53335 -41.98318,-33.94798 -41.98318,-58.148 0,-12.10002 4.03333,-23.46669 10.63334,-31.90003 8.80001,-10.26668 21.26668,-15.40002 38.8667,-15.40002 23.83335,0 42.53337,9.16668 52.80005,26.03336 5.86667,9.90001 8.8,20.53335 10.26667,38.50003 h 12.10001 l 0.52404,-92.851627 c -9.90001,3.66667 -14.82405,26.118237 -20.32405,26.118237 -3.66667,0 -8.06668,-0.73333 -13.56668,-1.833334 -23.10002,-5.500005 -29.33336,-6.233339 -43.26671,-6.233339 -22.00002,0 -38.50003,5.500005 -52.43338,17.600013 -15.03334,13.20001 -23.10002,31.53336 -23.10002,53.16672 0,17.60001 5.50001,31.90003 16.13335,43.2667 10.26667,11.00001 21.63335,17.96668 52.80005,33.00003 54.63338,26.40002 68.20006,40.33337 68.20006,69.30006 0,30.0667 -19.80002,47.66671 -53.16672,47.66671 -24.20002,0 -43.2667,-7.33334 -55.00005,-20.90002 -9.9,-11.73334 -13.56667,-23.46668 -15.03334,-46.20004 h -13.44024 z" sodipodi:nodetypes="cscscsccscsccccscscsccsscccc" transform="matrix(1.2253748,0,0,1.1591654,-77.387169,-25.091678)"></path>
    <path d="m 38.70962,367.57266 199.86747,43.26933 -3.88305,-96.34573 -9.98791,1.53046 c -11.30549,61.37997 -23.36408,72.57261 -72.492,62.50117 L 99.26126,367.67231 98.847352,131.09448 C 98.78255,94.055353 100.83885,91.601688 129.76068,89.26413 l -0.0703,-10.134773 -88.724083,4.298292 -0.07439,9.367188 C 66.476959,92.93086 68.413711,95.166384 68.29357,131.2127 l -0.632801,189.86104 c -0.128026,38.41205 -2.505891,40.86602 -28.87301,36.6601 z" id="text13-8" style="font-size:366.667px;font-family:'Hiragino Mincho ProN';-inkscape-font-specification:'Hiragino Mincho ProN, Normal';opacity:0.9975;fill:#ededed;fill-opacity:0.964706;stroke:#ededed;stroke-width:5.669;stroke-miterlimit:0;stroke-dasharray:none;stroke-opacity:0.952941" aria-label="L" inkscape:path-effect="#path-effect14" inkscape:original-d="m 38.70962,367.57266 h 191.76684 l -1.3077,-72.96673 -8.35782,2.29441 c -10.63334,49.13338 -21.13451,59.67231 -65.13455,59.67231 H 103.97634 V 148.3058 c 0,-34.10003 2.20001,-36.30004 32.2667,-37.40004 v -9.16667 H 38.70962 v 9.16667 c 29.700026,1.1 31.900028,3.30001 31.900028,37.40004 v 173.06682 c 0,33.73336 -2.566669,36.30003 -31.900028,37.40003 z" sodipodi:nodetypes="ccccscsccccsscc" transform="translate(-13.292907,17.200048)"></path>
  </g></svg>